<svg version="1.1" id="Layer_1" xmlns="http://www.w3.org/2000/svg" xmlns:xlink="http://www.w3.org/1999/xlink" x="0px" y="0px"
	 width="100%" viewBox="0 0 512 512" enable-background="new 0 0 512 512" xml:space="preserve">
<path fill="#FFFFFF" opacity="1.000000" stroke="none" 
	d="
M1.000000,492.000000 
	C1.000000,328.409546 1.000000,164.819077 1.000000,1.000000 
	C146.355896,1.000000 291.711914,1.000000 437.383850,1.360057 
	C426.836334,1.779955 416.037018,15.529285 422.907104,29.284908 
	C398.492493,67.054283 374.233917,104.513924 349.552246,141.984467 
	C345.137146,143.040634 341.145172,144.085892 336.821777,144.983963 
	C327.956512,140.391998 319.476013,135.840820 310.875885,131.528244 
	C299.012634,125.579407 287.059143,119.810623 275.081604,113.545059 
	C275.455170,108.235222 273.484619,104.248169 270.272186,100.782692 
	C264.614685,94.679489 254.264008,93.108833 247.380981,97.249405 
	C239.162674,102.193230 236.013550,111.178596 238.903671,121.278778 
	C229.421204,132.953751 220.140717,144.365219 210.766739,155.699356 
	C196.864090,172.509171 182.895187,189.264175 168.517700,206.025146 
	C163.515137,207.093323 158.949387,208.178909 154.045090,209.103271 
	C147.602890,205.599274 141.534134,202.190781 135.388580,198.926926 
	C120.923248,191.244522 106.421234,183.631180 91.962372,175.574524 
	C91.745384,168.329208 88.940102,163.002167 82.951065,159.445953 
	C74.127800,154.206833 62.166992,157.897125 57.267128,165.940186 
	C53.418259,172.258026 54.757427,186.519882 62.339916,191.348206 
	C69.952209,196.195526 76.630981,194.881912 84.212814,192.050812 
	C105.012100,203.138641 125.480782,214.085495 145.971664,225.427277 
	C146.340729,227.414612 146.632492,229.021408 147.043488,230.597092 
	C149.467865,239.892136 160.357635,245.949707 169.542953,243.135925 
	C181.084839,239.600250 185.446609,231.404434 183.041183,217.759018 
	C190.804749,208.127777 198.409317,198.802383 206.019272,189.481384 
	C216.128128,177.099640 226.184494,164.674423 236.375336,152.360519 
	C241.826218,145.774063 247.512009,139.382019 253.523453,132.945236 
	C258.271210,131.960464 262.587280,130.932709 267.269836,129.961365 
	C288.100281,140.360931 308.564209,150.704102 329.152039,161.413269 
	C329.517120,162.701157 329.866547,163.609604 329.982910,164.546951 
	C331.290680,175.084183 340.617920,180.592682 348.999237,179.822922 
	C362.833649,178.552322 371.540497,165.659012 365.058594,151.740112 
	C378.242432,131.326660 391.273468,111.227715 404.308411,91.131271 
	C415.545715,73.806236 426.787506,56.484070 438.450684,39.091511 
	C447.761993,38.905972 456.560608,32.957020 457.930939,25.854477 
	C459.833801,15.991854 456.237946,5.865774 446.680573,2.932360 
	C444.769379,2.345770 442.892639,1.647026 441.000000,1.000000 
	C464.981567,1.000000 488.963135,1.000000 513.000000,1.000000 
	C513.000000,164.355972 513.000000,327.711945 512.714050,491.354065 
	C509.614227,485.306183 504.743408,482.551056 497.844208,482.960083 
	C494.222717,483.174744 490.576782,482.977112 486.966888,482.500671 
	C486.661255,461.454773 486.068848,440.874176 486.045166,420.292877 
	C485.940643,329.529053 486.001343,238.765030 485.997986,148.001068 
	C485.997620,138.644791 480.004364,129.852570 470.883362,129.262924 
	C456.301971,128.320297 441.608704,129.108383 426.501373,129.092697 
	C422.208710,129.013718 418.348724,129.307831 414.551331,128.945572 
	C401.161499,127.668213 393.749634,138.929825 393.834595,149.540543 
	C394.187958,193.678757 393.916779,237.821945 393.560852,281.821594 
	C390.088654,274.101410 384.172913,269.512817 376.256836,269.169952 
	C363.185333,268.603729 350.067322,269.110992 336.506958,269.097839 
	C332.885040,269.021606 329.713501,269.185669 326.567291,268.973785 
	C315.909393,268.255951 307.984528,272.309357 303.090790,281.540222 
	C303.013367,267.917358 303.081085,254.758072 302.976044,241.600159 
	C302.894104,231.343369 294.527496,222.157730 284.932556,222.051239 
	C271.613708,221.903412 258.290924,222.110474 244.507797,222.096832 
	C239.390381,222.021500 234.730774,222.138916 230.080521,221.981079 
	C221.830292,221.700989 210.023376,230.187592 210.581467,241.120819 
	C210.141769,270.254730 210.067429,299.153351 210.046021,328.052002 
	C210.045517,328.739319 210.637375,329.427063 210.973694,330.574524 
	C210.943176,336.352295 210.891891,341.670166 210.539673,346.808716 
	C207.879837,339.351501 200.532715,333.157318 193.295441,333.064240 
	C180.510071,332.899780 167.719818,333.116455 154.471344,333.113861 
	C150.549240,333.044189 147.074142,333.226257 143.628052,332.988281 
	C133.341415,332.277863 125.314255,335.808929 120.079857,344.540985 
	C120.012459,330.938446 120.295151,317.793030 119.911980,304.666992 
	C119.582603,293.383514 112.431419,284.513641 101.371712,284.128906 
	C87.592590,283.649628 73.780960,284.105194 59.520439,284.093597 
	C55.730263,284.023560 52.399925,284.107758 49.076317,283.994446 
	C36.135147,283.553345 26.957146,292.906799 26.977953,306.313324 
	C27.069366,365.206512 27.018377,424.099945 26.551331,482.996521 
	C16.534185,482.688202 6.834094,481.956848 1.000000,492.000000 
z"/>
<path fill="#D6CCC5" opacity="1.000000" stroke="none" 
	d="
M486.941864,482.965698 
	C490.576782,482.977112 494.222717,483.174744 497.844208,482.960083 
	C504.743408,482.551056 509.614227,485.306183 512.714050,491.820129 
	C513.000000,495.361298 513.000000,498.722565 512.714417,502.720123 
	C509.090027,509.822937 503.769165,512.089844 496.555328,512.083069 
	C372.088928,511.967560 247.622375,511.995117 123.155876,512.041504 
	C121.103806,512.042297 119.051956,512.666687 117.000000,513.000000 
	C87.979103,513.000000 58.958210,513.000000 29.423403,512.657227 
	C27.754179,511.440063 26.629150,510.521881 25.438438,509.698669 
	C19.607687,505.667511 16.961992,498.041260 20.242935,492.195740 
	C22.033314,489.005920 25.368164,486.682953 28.473146,483.986969 
	C34.613457,483.723419 40.287094,483.441925 46.323128,483.349487 
	C49.843475,483.582184 53.001518,483.669250 56.159363,483.662445 
	C77.113091,483.617432 98.066772,483.552277 119.374176,483.680115 
	C125.537674,483.689911 131.347473,483.513245 137.614319,483.308716 
	C162.383591,483.187683 186.695786,483.094543 211.468384,483.090088 
	C217.619659,483.116119 223.310562,483.053467 229.463455,483.077209 
	C254.226334,483.088013 278.527222,483.012390 303.303040,483.015320 
	C309.514709,483.041260 315.251465,482.988708 321.452728,483.010254 
	C345.950256,483.020935 369.983276,482.957458 394.261353,482.948120 
	C394.669342,482.964478 394.832336,482.926758 395.457703,482.966492 
	C401.289612,482.995026 406.659210,482.946106 412.490997,482.967621 
	C437.616089,483.013947 462.278992,482.989807 486.941864,482.965698 
z"/>
<path fill="#F44321" opacity="1.000000" stroke="none" 
	d="
M423.063141,28.975178 
	C416.037018,15.529285 426.836334,1.779955 437.849884,1.360057 
	C438.750000,1.000000 439.500000,1.000000 440.625000,1.000000 
	C442.892639,1.647026 444.769379,2.345770 446.680573,2.932360 
	C456.237946,5.865774 459.833801,15.991854 457.930939,25.854477 
	C456.560608,32.957020 447.761993,38.905972 438.078552,39.016068 
	C431.220978,37.538486 426.568604,34.069462 423.063141,28.975178 
z"/>
<path fill="#C4BAB4" opacity="1.000000" stroke="none" 
	d="
M28.006479,483.969055 
	C25.368164,486.682953 22.033314,489.005920 20.242935,492.195740 
	C16.961992,498.041260 19.607687,505.667511 25.438438,509.698669 
	C26.629150,510.521881 27.754179,511.440063 28.954746,512.657227 
	C24.310745,513.000000 19.621489,513.000000 14.253721,512.694397 
	C7.353755,511.977753 3.858806,507.914917 1.000000,503.000000 
	C1.000000,499.638702 1.000000,496.277435 1.000000,492.458069 
	C6.834094,481.956848 16.534185,482.688202 26.786463,483.074463 
	C27.776363,483.350128 27.948767,483.623413 28.006479,483.969055 
z"/>
<path fill="#FFFFFF" opacity="1.000000" stroke="none" 
	d="
M117.468658,513.000000 
	C119.051956,512.666687 121.103806,512.042297 123.155876,512.041504 
	C247.622375,511.995117 372.088928,511.967560 496.555328,512.083069 
	C503.769165,512.089844 509.090027,509.822937 512.714417,503.178192 
	C513.000000,506.329742 513.000000,509.659454 513.000000,512.994629 
	C381.312439,513.000000 249.624878,513.000000 117.468658,513.000000 
z"/>
<path fill="#FFFFFF" opacity="1.000000" stroke="none" 
	d="
M1.000000,503.486572 
	C3.858806,507.914917 7.353755,511.977753 13.787603,512.694397 
	C9.757785,513.000000 5.515570,513.000000 1.000000,513.000000 
	C1.000000,509.996277 1.000000,506.984711 1.000000,503.486572 
z"/>
<path fill="#F44321" opacity="1.000000" stroke="none" 
	d="
M486.966888,482.500702 
	C462.278992,482.989807 437.616089,483.013947 412.489380,482.506348 
	C412.017456,372.205597 412.093811,262.436401 411.877045,152.667786 
	C411.854095,141.055008 416.001495,133.196030 426.962738,129.164780 
	C441.608704,129.108383 456.301971,128.320297 470.883362,129.262924 
	C480.004364,129.852570 485.997620,138.644791 485.997986,148.001068 
	C486.001343,238.765030 485.940643,329.529053 486.045166,420.292877 
	C486.068848,440.874176 486.661255,461.454773 486.966888,482.500702 
z"/>
<path fill="#04C051" opacity="1.000000" stroke="none" 
	d="
M302.828125,482.936798 
	C278.527222,483.012390 254.226334,483.088013 229.463303,482.609192 
	C229.000580,402.745575 229.056778,323.436249 228.909149,244.127258 
	C228.894821,236.427948 231.754242,230.596313 237.571548,226.080917 
	C239.742630,224.395737 242.486908,223.449020 244.969818,222.165588 
	C258.290924,222.110474 271.613708,221.903412 284.932556,222.051239 
	C294.527496,222.157730 302.894104,231.343369 302.976044,241.600159 
	C303.081085,254.758072 303.013367,267.917358 303.020996,281.965454 
	C302.784760,287.289520 302.333679,291.724640 302.342590,296.158813 
	C302.467743,358.418213 302.655548,420.677490 302.828125,482.936798 
z"/>
<path fill="#FE9900" opacity="1.000000" stroke="none" 
	d="
M394.016327,482.893982 
	C369.983276,482.957458 345.950256,483.020935 321.454773,482.546478 
	C320.990753,419.101257 321.118500,356.193420 320.869476,293.287109 
	C320.824127,281.837463 323.981873,273.425476 335.795227,270.053589 
	C336.235107,269.928070 336.579834,269.469299 336.968933,269.165863 
	C350.067322,269.110992 363.185333,268.603729 376.256836,269.169952 
	C384.172913,269.512817 390.088654,274.101410 393.612366,282.288025 
	C394.006592,331.298676 394.023956,379.701202 394.070068,428.103699 
	C394.087189,446.065765 394.171875,464.027771 394.149292,482.210266 
	C394.072906,482.430756 394.016327,482.893982 394.016327,482.893982 
z"/>
<path fill="#485360" opacity="1.000000" stroke="none" 
	d="
M119.020470,483.493652 
	C98.066772,483.552277 77.113091,483.617432 56.159363,483.662445 
	C53.001518,483.669250 49.843475,483.582184 46.335175,482.869202 
	C45.988983,422.902435 46.007099,363.605011 45.981392,304.307587 
	C45.977772,295.957306 49.761253,290.124939 57.135471,286.412048 
	C58.194706,285.878754 59.039383,284.919281 59.983364,284.157074 
	C73.780960,284.105194 87.592590,283.649628 101.371712,284.128906 
	C112.431419,284.513641 119.582603,293.383514 119.911980,304.666992 
	C120.295151,317.793030 120.012459,330.938446 120.018646,344.963806 
	C119.704102,352.469788 119.134552,359.086823 119.117157,365.705292 
	C119.013977,404.967865 119.038727,444.230835 119.020470,483.493652 
z"/>
<path fill="#1CC0F9" opacity="1.000000" stroke="none" 
	d="
M211.007996,483.001404 
	C186.695786,483.094543 162.383591,483.187683 137.574310,482.814148 
	C137.057236,439.955292 136.990143,397.563019 137.111465,355.171265 
	C137.120636,351.965729 138.247375,348.693115 139.240540,345.574585 
	C141.658218,337.983002 148.323044,335.570526 154.931610,333.173584 
	C167.719818,333.116455 180.510071,332.899780 193.295441,333.064240 
	C200.532715,333.157318 207.879837,339.351501 210.601898,347.272491 
	C210.979370,392.944183 210.993683,437.972778 211.007996,483.001404 
z"/>
<path fill="#C6281C" opacity="1.000000" stroke="none" 
	d="
M394.225708,481.989807 
	C394.171875,464.027771 394.087189,446.065765 394.070068,428.103699 
	C394.023956,379.701202 394.006592,331.298676 393.926270,282.429749 
	C393.916779,237.821945 394.187958,193.678757 393.834595,149.540543 
	C393.749634,138.929825 401.161499,127.668213 414.551331,128.945572 
	C418.348724,129.307831 422.208710,129.013718 426.501373,129.092697 
	C416.001495,133.196030 411.854095,141.055008 411.877045,152.667786 
	C412.093811,262.436401 412.017456,372.205597 412.027161,482.435883 
	C406.659210,482.946106 401.289612,482.995026 395.371643,482.782684 
	C394.673615,482.288513 394.474457,482.111298 394.225708,481.989807 
z"/>
<path fill="#02A544" opacity="1.000000" stroke="none" 
	d="
M211.468384,483.090088 
	C210.993683,437.972778 210.979370,392.944183 210.902832,347.451782 
	C210.891891,341.670166 210.943176,336.352295 210.987915,330.098663 
	C210.972046,299.737091 210.962738,270.311340 210.953415,240.885559 
	C210.023376,230.187592 221.830292,221.700989 230.080521,221.981079 
	C234.730774,222.138916 239.390381,222.021500 244.507797,222.096832 
	C242.486908,223.449020 239.742630,224.395737 237.571548,226.080917 
	C231.754242,230.596313 228.894821,236.427948 228.909149,244.127258 
	C229.056778,323.436249 229.000580,402.745575 229.001312,482.522827 
	C223.310562,483.053467 217.619659,483.116119 211.468384,483.090088 
z"/>
<path fill="#EF7A06" opacity="1.000000" stroke="none" 
	d="
M336.506958,269.097839 
	C336.579834,269.469299 336.235107,269.928070 335.795227,270.053589 
	C323.981873,273.425476 320.824127,281.837463 320.869476,293.287109 
	C321.118500,356.193420 320.990753,419.101257 320.990295,482.472351 
	C315.251465,482.988708 309.514709,483.041260 303.303040,483.015320 
	C302.655548,420.677490 302.467743,358.418213 302.342590,296.158813 
	C302.333679,291.724640 302.784760,287.289520 303.091736,282.429626 
	C307.984528,272.309357 315.909393,268.255951 326.567291,268.973785 
	C329.713501,269.185669 332.885040,269.021606 336.506958,269.097839 
z"/>
<path fill="#374452" opacity="1.000000" stroke="none" 
	d="
M59.520435,284.093597 
	C59.039383,284.919281 58.194706,285.878754 57.135471,286.412048 
	C49.761253,290.124939 45.977772,295.957306 45.981392,304.307587 
	C46.007099,363.605011 45.988983,422.902435 45.972782,482.680145 
	C40.287094,483.441925 34.613457,483.723419 28.473148,483.986969 
	C27.948767,483.623413 27.776363,483.350128 27.254143,483.071228 
	C27.018377,424.099945 27.069366,365.206512 26.977953,306.313324 
	C26.957146,292.906799 36.135147,283.553345 49.076317,283.994446 
	C52.399925,284.107758 55.730263,284.023560 59.520435,284.093597 
z"/>
<path fill="#00A8E2" opacity="1.000000" stroke="none" 
	d="
M154.471344,333.113892 
	C148.323044,335.570526 141.658218,337.983002 139.240540,345.574585 
	C138.247375,348.693115 137.120636,351.965729 137.111465,355.171265 
	C136.990143,397.563019 137.057236,439.955292 137.117249,482.842010 
	C131.347473,483.513245 125.537674,483.689911 119.374176,483.680115 
	C119.038727,444.230835 119.013977,404.967865 119.117157,365.705292 
	C119.134552,359.086823 119.704102,352.469788 120.079758,345.429321 
	C125.314255,335.808929 133.341415,332.277863 143.628052,332.988281 
	C147.074142,333.226257 150.549240,333.044189 154.471344,333.113892 
z"/>
<path fill="#D6CCC5" opacity="1.000000" stroke="none" 
	d="
M422.907104,29.284908 
	C426.568604,34.069462 431.220978,37.538486 437.655212,39.085201 
	C426.787506,56.484070 415.545715,73.806236 404.308411,91.131271 
	C391.273468,111.227715 378.242432,131.326660 364.760376,151.583221 
	C360.949951,146.405518 355.400482,144.280777 349.975342,141.973572 
	C374.233917,104.513924 398.492493,67.054283 422.907104,29.284908 
z"/>
<path fill="#D6CCC5" opacity="1.000000" stroke="none" 
	d="
M253.091797,132.902252 
	C247.512009,139.382019 241.826218,145.774063 236.375336,152.360519 
	C226.184494,164.674423 216.128128,177.099640 206.019272,189.481384 
	C198.409317,198.802383 190.804749,208.127777 182.745743,217.605194 
	C180.500427,215.626358 178.935150,213.229858 176.853897,211.430023 
	C174.458878,209.358841 171.607605,207.815262 168.954498,206.042526 
	C182.895187,189.264175 196.864090,172.509171 210.766739,155.699356 
	C220.140717,144.365219 229.421204,132.953751 239.174103,121.479111 
	C242.001495,127.678726 247.734894,130.070099 253.091797,132.902252 
z"/>
<path fill="#D6CCC5" opacity="1.000000" stroke="none" 
	d="
M145.949463,225.032349 
	C125.480782,214.085495 105.012100,203.138641 84.272278,191.702789 
	C88.346710,187.025650 91.068405,181.991333 91.934067,175.989883 
	C106.421234,183.631180 120.923248,191.244522 135.388580,198.926926 
	C141.534134,202.190781 147.602890,205.599274 153.912842,209.419312 
	C149.662994,214.006485 146.965134,219.065430 145.949463,225.032349 
z"/>
<path fill="#D6CCC5" opacity="1.000000" stroke="none" 
	d="
M329.028168,161.047256 
	C308.564209,150.704102 288.100281,140.360931 267.322571,129.612244 
	C269.055847,126.591179 271.433746,124.161552 273.041534,121.299324 
	C274.253571,119.141563 274.479431,116.429848 275.144287,113.964722 
	C287.059143,119.810623 299.012634,125.579407 310.875885,131.528244 
	C319.476013,135.840820 327.956512,140.391998 336.766571,145.327057 
	C332.662018,149.994507 330.372986,155.272430 329.028168,161.047256 
z"/>
<path fill="#485360" opacity="1.000000" stroke="none" 
	d="
M91.962372,175.574524 
	C91.068405,181.991333 88.346710,187.025650 83.941681,191.561798 
	C76.630981,194.881912 69.952209,196.195526 62.339916,191.348206 
	C54.757427,186.519882 53.418259,172.258026 57.267128,165.940186 
	C62.166992,157.897125 74.127800,154.206833 82.951065,159.445953 
	C88.940102,163.002167 91.745384,168.329208 91.962372,175.574524 
z"/>
<path fill="#04C051" opacity="1.000000" stroke="none" 
	d="
M275.081573,113.545052 
	C274.479431,116.429848 274.253571,119.141563 273.041534,121.299324 
	C271.433746,124.161552 269.055847,126.591179 266.956116,129.555817 
	C262.587280,130.932709 258.271210,131.960464 253.523438,132.945221 
	C247.734894,130.070099 242.001495,127.678726 239.334259,121.181007 
	C236.013550,111.178596 239.162674,102.193230 247.380981,97.249405 
	C254.264008,93.108833 264.614685,94.679489 270.272186,100.782692 
	C273.484619,104.248169 275.455170,108.235222 275.081573,113.545052 
z"/>
<path fill="#4D90F4" opacity="1.000000" stroke="none" 
	d="
M145.971664,225.427277 
	C146.965134,219.065430 149.662994,214.006485 154.251373,209.580536 
	C158.949387,208.178909 163.515137,207.093323 168.517700,206.025146 
	C171.607605,207.815262 174.458878,209.358841 176.853897,211.430023 
	C178.935150,213.229858 180.500427,215.626358 182.589157,217.912994 
	C185.446609,231.404434 181.084839,239.600250 169.542953,243.135925 
	C160.357635,245.949707 149.467865,239.892136 147.043488,230.597092 
	C146.632492,229.021408 146.340729,227.414612 145.971664,225.427277 
z"/>
<path fill="#FE9900" opacity="1.000000" stroke="none" 
	d="
M329.152039,161.413269 
	C330.372986,155.272430 332.662018,149.994507 337.097992,145.474228 
	C341.145172,144.085892 345.137146,143.040634 349.552246,141.984467 
	C355.400482,144.280777 360.949951,146.405518 364.609253,151.898788 
	C371.540497,165.659012 362.833649,178.552322 348.999237,179.822922 
	C340.617920,180.592682 331.290680,175.084183 329.982910,164.546951 
	C329.866547,163.609604 329.517120,162.701157 329.152039,161.413269 
z"/>
<path fill="#03B24A" opacity="1.000000" stroke="none" 
	d="
M210.581467,241.120819 
	C210.962738,270.311340 210.972046,299.737091 210.967163,329.638733 
	C210.637375,329.427063 210.045517,328.739319 210.046021,328.052002 
	C210.067429,299.153351 210.141769,270.254730 210.581467,241.120819 
z"/>
<path fill="#D74018" opacity="1.000000" stroke="none" 
	d="
M394.149323,482.210266 
	C394.474457,482.111298 394.673615,482.288513 394.909302,482.705200 
	C394.832336,482.926758 394.669342,482.964478 394.261353,482.948120 
	C394.016327,482.893982 394.072906,482.430756 394.149323,482.210266 
z"/>
</svg>