<svg version="1.1" id="Layer_1" xmlns="http://www.w3.org/2000/svg" xmlns:xlink="http://www.w3.org/1999/xlink" x="0px" y="0px"
	 width="100%" viewBox="0 0 512 512" enable-background="new 0 0 512 512" xml:space="preserve">
<path fill="#000000" opacity="1.000000" stroke="none" 
	d="
M0.999999,350.000000 
	C1.000000,233.725342 1.000000,117.450699 1.000000,1.088024 
	C171.666641,1.088024 342.333313,1.088024 513.000000,1.088024 
	C513.000000,6.062821 513.000000,11.060212 512.649719,16.555042 
	C509.284973,13.565970 506.224060,10.152781 500.960083,9.706219 
	C500.222565,9.336791 499.643127,9.227420 498.594482,9.056714 
	C479.734192,9.035761 461.343079,9.076142 442.706970,9.165966 
	C442.256348,9.472623 442.050720,9.729839 441.477173,9.984538 
	C433.292786,12.285186 428.795654,19.369898 430.028259,27.438837 
	C431.182709,34.995907 436.935608,39.879974 444.895477,40.028782 
	C447.059326,40.069233 449.224640,40.031334 451.389282,40.030884 
	C454.865509,40.030167 458.341705,40.030693 463.167206,40.030693 
	C457.276245,46.402615 452.496460,51.441586 447.861603,56.610538 
	C434.160492,71.890495 420.533356,87.236771 406.843140,102.526535 
	C400.214996,109.929100 393.473907,117.230576 386.848175,124.635254 
	C373.276001,139.802963 359.726227,154.990814 346.209106,170.207581 
	C339.181580,178.118805 332.294098,186.154709 325.245361,194.046753 
	C321.071381,198.720093 316.706299,203.222778 312.793610,207.410065 
	C294.318512,196.804657 276.184723,186.395142 257.859314,175.695465 
	C240.340256,165.327896 222.948715,155.358383 205.713959,145.124832 
	C197.801819,140.426804 190.398956,140.703827 184.276276,147.311920 
	C171.028168,161.610382 158.021637,176.132828 144.930069,190.576111 
	C138.831268,197.304611 132.742859,204.042755 126.687584,210.810410 
	C112.713348,226.428635 98.789993,242.092484 84.789986,257.687531 
	C77.834648,265.435272 70.703957,273.025543 63.743660,280.768921 
	C49.511341,296.602417 35.317368,312.470551 21.155245,328.366882 
	C15.014471,335.259613 9.004837,342.269135 2.885541,349.181244 
	C2.473933,349.646210 1.638380,349.735809 0.999999,350.000000 
z"/>
<path fill="#000000" opacity="1.000000" stroke="none" 
	d="
M1.000000,482.000000 
	C1.000000,443.312439 1.000000,404.624878 1.331598,365.294861 
	C2.053718,364.955048 2.611802,365.174225 2.810203,365.572571 
	C7.482232,374.953278 21.867445,375.069794 27.774916,367.838898 
	C31.958019,362.718689 36.813885,358.154358 41.230110,353.217255 
	C57.527306,334.997803 73.761841,316.722321 90.029488,298.476410 
	C98.384621,289.105225 106.733681,279.728424 115.131798,270.395844 
	C130.500885,253.316513 145.917496,236.279938 161.289139,219.202911 
	C172.896744,206.307495 184.469315,193.380524 196.046463,180.457733 
	C197.696503,178.615921 199.210068,177.261780 201.964493,178.947372 
	C208.692856,183.064911 215.564758,186.948654 222.393524,190.901199 
	C233.903687,197.563385 245.425217,204.205963 257.246033,211.033264 
	C274.771454,221.371918 291.847900,231.793610 309.300110,241.542557 
	C314.734344,244.578186 321.189056,243.990433 326.016418,239.428680 
	C331.436096,234.307220 336.397339,228.683334 341.373627,223.113297 
	C354.172028,208.787796 366.828003,194.335098 379.621613,180.005295 
	C386.690613,172.087555 393.978424,164.365433 401.069122,156.466721 
	C417.890625,137.728271 434.667450,118.949631 451.429718,100.158150 
	C455.503754,95.590912 459.380554,90.847153 463.474792,86.298645 
	C469.605682,79.487488 475.848724,72.777267 483.001526,64.980446 
	C483.001526,70.075447 483.400543,73.894226 482.923553,77.600266 
	C481.702179,87.090416 492.345367,96.458282 503.287537,91.928932 
	C506.867645,90.447006 509.781464,87.355431 513.000000,85.000000 
	C513.000000,217.020889 513.000000,349.041779 512.650391,481.563110 
	C507.798523,475.714355 501.804169,473.001190 493.950500,473.883026 
	C490.023865,474.323914 485.996277,473.865540 482.008240,473.359131 
	C482.001404,389.782593 482.006683,306.660828 481.962067,223.539047 
	C481.961060,221.673294 481.393677,219.807846 481.052521,217.527084 
	C480.909088,207.998550 474.998260,202.030701 465.896118,202.012283 
	C446.229675,201.972504 426.563080,201.991562 406.896545,202.003433 
	C396.714081,202.009583 391.001343,207.710236 391.000305,217.823212 
	C390.991730,303.155884 390.983948,388.488556 390.510864,473.868225 
	C380.702209,473.881226 371.358582,473.847260 362.008575,473.357544 
	C362.001434,419.639709 362.008514,366.377563 361.964569,313.115479 
	C361.963135,311.408173 361.438354,309.701355 361.091400,307.578918 
	C360.891541,297.759247 355.042328,292.017242 345.493530,292.006592 
	C325.858612,291.984741 306.223663,291.986542 286.588715,292.005646 
	C276.824738,292.015167 271.002075,297.862427 271.000488,307.590027 
	C270.991455,363.000427 270.983978,418.410828 270.514435,473.868164 
	C265.683807,473.989746 261.314697,474.064362 256.485291,474.087891 
	C251.349991,473.968842 246.674942,473.900879 241.999939,473.375488 
	C242.000000,416.317749 242.006668,359.717407 241.992691,303.117065 
	C241.990646,294.797241 241.890656,286.477417 241.829681,277.761475 
	C241.623184,277.105377 241.291595,276.868347 241.241776,276.582214 
	C239.393448,265.965424 234.711731,262.000885 223.979889,262.000488 
	C204.834091,261.999817 185.688278,261.986938 166.542496,262.005798 
	C156.848129,262.015320 151.002213,267.905090 151.000305,277.593994 
	C150.987366,343.022491 150.975250,408.450958 150.498383,473.923706 
	C140.689224,473.923157 131.344543,473.878387 121.999924,473.377014 
	C121.999985,452.963562 122.021278,433.006622 121.961777,413.049896 
	C121.956718,411.354065 121.412476,409.659790 121.067413,407.548889 
	C120.917213,398.020477 115.056145,392.035156 106.023605,392.014557 
	C86.058136,391.968994 66.092453,391.976410 46.126938,392.011200 
	C37.059029,392.026978 31.007698,398.072235 31.001213,406.995361 
	C30.985010,429.290070 30.975010,451.584747 30.498278,473.923706 
	C19.696064,474.259705 8.570557,471.704681 1.000000,482.000000 
z"/>
<path fill="#37455F" opacity="1.000000" stroke="none" 
	d="
M513.000000,84.531342 
	C509.781464,87.355431 506.867645,90.447006 503.287537,91.928932 
	C492.345367,96.458282 481.702179,87.090416 482.923553,77.600266 
	C483.400543,73.894226 483.001526,70.075447 483.001526,64.980446 
	C475.848724,72.777267 469.605682,79.487488 463.474792,86.298645 
	C459.380554,90.847153 455.503754,95.590912 451.429718,100.158150 
	C434.667450,118.949631 417.890625,137.728271 401.069122,156.466721 
	C393.978424,164.365433 386.690613,172.087555 379.621613,180.005295 
	C366.828003,194.335098 354.172028,208.787796 341.373627,223.113297 
	C336.397339,228.683334 331.436096,234.307220 326.016418,239.428680 
	C321.189056,243.990433 314.734344,244.578186 309.300110,241.542557 
	C291.847900,231.793610 274.771454,221.371918 257.257843,210.574005 
	C256.975464,202.518799 256.871521,195.096725 257.041534,187.680939 
	C257.130981,183.776825 257.699005,179.883713 258.050903,175.985626 
	C276.184723,186.395142 294.318512,196.804657 312.793610,207.410065 
	C316.706299,203.222778 321.071381,198.720093 325.245361,194.046753 
	C332.294098,186.154709 339.181580,178.118805 346.209106,170.207581 
	C359.726227,154.990814 373.276001,139.802963 386.848175,124.635254 
	C393.473907,117.230576 400.214996,109.929100 406.843140,102.526535 
	C420.533356,87.236771 434.160492,71.890495 447.861603,56.610538 
	C452.496460,51.441586 457.276245,46.402615 463.167206,40.030693 
	C458.341705,40.030693 454.865509,40.030167 451.389282,40.030884 
	C449.224640,40.031334 447.059326,40.069233 444.895477,40.028782 
	C436.935608,39.879974 431.182709,34.995907 430.028259,27.438837 
	C428.795654,19.369898 433.292786,12.285186 441.659241,9.836142 
	C442.462494,9.506436 442.710114,9.315190 442.951996,9.116524 
	C461.343079,9.076142 479.734192,9.035761 498.842743,9.183208 
	C500.079529,9.569454 500.598877,9.767871 501.118195,9.966281 
	C506.224060,10.152781 509.284973,13.565970 512.649719,17.026239 
	C513.000000,39.354229 513.000000,61.708454 513.000000,84.531342 
z"/>
<path fill="#4D6780" opacity="1.000000" stroke="none" 
	d="
M257.859314,175.695465 
	C257.699005,179.883713 257.130981,183.776825 257.041534,187.680939 
	C256.871521,195.096725 256.975464,202.518799 256.953796,210.397522 
	C245.425217,204.205963 233.903687,197.563385 222.393524,190.901199 
	C215.564758,186.948654 208.692856,183.064911 201.964493,178.947372 
	C199.210068,177.261780 197.696503,178.615921 196.046463,180.457733 
	C184.469315,193.380524 172.896744,206.307495 161.289139,219.202911 
	C145.917496,236.279938 130.500885,253.316513 115.131798,270.395844 
	C106.733681,279.728424 98.384621,289.105225 90.029488,298.476410 
	C73.761841,316.722321 57.527306,334.997803 41.230110,353.217255 
	C36.813885,358.154358 31.958019,362.718689 27.774916,367.838898 
	C21.867445,375.069794 7.482232,374.953278 2.810203,365.572571 
	C2.611802,365.174225 2.053718,364.955048 1.331598,364.826202 
	C1.000000,360.310760 1.000000,355.621490 0.999999,350.466125 
	C1.638380,349.735809 2.473933,349.646210 2.885541,349.181244 
	C9.004837,342.269135 15.014471,335.259613 21.155245,328.366882 
	C35.317368,312.470551 49.511341,296.602417 63.743660,280.768921 
	C70.703957,273.025543 77.834648,265.435272 84.789986,257.687531 
	C98.789993,242.092484 112.713348,226.428635 126.687584,210.810410 
	C132.742859,204.042755 138.831268,197.304611 144.930069,190.576111 
	C158.021637,176.132828 171.028168,161.610382 184.276276,147.311920 
	C190.398956,140.703827 197.801819,140.426804 205.713959,145.124832 
	C222.948715,155.358383 240.340256,165.327896 257.859314,175.695465 
z"/>
<path fill="#4D6780" opacity="1.000000" stroke="none" 
	d="
M241.999908,473.832886 
	C246.674942,473.900879 251.349991,473.968842 256.497070,474.547424 
	C256.964447,484.998962 256.959808,494.939941 256.491028,504.924561 
	C176.454193,504.978485 96.881523,505.008453 17.308908,504.958374 
	C11.469600,504.954712 6.354157,502.952240 2.857082,497.849915 
	C2.527112,497.368469 1.632473,497.274078 1.000003,497.000000 
	C1.000000,492.310760 1.000000,487.621490 1.000000,482.466125 
	C8.570557,471.704681 19.696064,474.259705 30.959190,474.028320 
	C48.654640,474.119141 65.425018,474.196289 82.195198,474.165131 
	C95.138771,474.141083 108.082092,473.981110 121.270691,473.901672 
	C121.515854,473.921814 121.999863,473.833618 121.999863,473.833618 
	C131.344543,473.878387 140.689224,473.923157 150.959351,474.027893 
	C168.651779,474.118622 185.418839,474.195953 202.185684,474.165161 
	C215.126740,474.141388 228.067535,473.981903 241.258133,473.906342 
	C241.671844,473.897583 241.835876,473.865234 241.999908,473.832886 
z"/>
<path fill="#37455F" opacity="1.000000" stroke="none" 
	d="
M256.955170,504.880920 
	C256.959808,494.939941 256.964447,484.998962 256.957336,474.598480 
	C261.314697,474.064362 265.683807,473.989746 270.978455,473.952454 
	C301.605988,473.942719 331.307953,473.895691 361.262970,473.889893 
	C361.682312,473.891846 361.848633,473.852539 362.014984,473.813263 
	C371.358582,473.847260 380.702209,473.881226 390.974915,473.952454 
	C421.583954,473.944092 451.263885,473.898468 481.213226,473.891357 
	C481.659851,473.891205 481.837097,473.852570 482.014343,473.813904 
	C485.996277,473.865540 490.023865,474.323914 493.950500,473.883026 
	C501.804169,473.001190 507.798523,475.714355 512.650391,482.031738 
	C513.000000,486.689240 513.000000,491.378510 512.649414,496.504150 
	C507.726746,502.932220 501.637817,505.140869 494.167908,505.131104 
	C417.258209,505.030823 340.348267,505.071014 263.438416,505.061584 
	C261.277344,505.061310 259.116241,504.943787 256.955170,504.880920 
z"/>
<path fill="#000000" opacity="1.000000" stroke="none" 
	d="
M256.491028,504.924561 
	C259.116241,504.943787 261.277344,505.061310 263.438416,505.061584 
	C340.348267,505.071014 417.258209,505.030823 494.167908,505.131104 
	C501.637817,505.140869 507.726746,502.932220 512.649414,496.970276 
	C513.000000,502.329010 513.000000,507.657990 513.000000,512.965149 
	C342.333344,512.965149 171.666656,512.965149 1.000000,512.965149 
	C1.000000,507.934326 1.000000,502.938385 1.000003,497.471191 
	C1.632473,497.274078 2.527112,497.368469 2.857082,497.849915 
	C6.354157,502.952240 11.469600,504.954712 17.308908,504.958374 
	C96.881523,505.008453 176.454193,504.978485 256.491028,504.924561 
z"/>
<path fill="#41526C" opacity="1.000000" stroke="none" 
	d="
M500.960083,9.706224 
	C500.598877,9.767871 500.079529,9.569454 499.311951,9.244543 
	C499.643127,9.227420 500.222565,9.336791 500.960083,9.706224 
z"/>
<path fill="#41526C" opacity="1.000000" stroke="none" 
	d="
M442.706970,9.165965 
	C442.710114,9.315190 442.462494,9.506436 442.027130,9.838659 
	C442.050720,9.729839 442.256348,9.472623 442.706970,9.165965 
z"/>
<path fill="#FF4433" opacity="1.000000" stroke="none" 
	d="
M480.943848,473.852844 
	C451.263885,473.898468 421.583954,473.944092 391.439972,473.905457 
	C390.983948,388.488556 390.991730,303.155884 391.000305,217.823212 
	C391.001343,207.710236 396.714081,202.009583 406.896545,202.003433 
	C426.563080,201.991562 446.229675,201.972504 465.896118,202.012283 
	C474.998260,202.030701 480.909088,207.998550 481.033630,217.997009 
	C481.035156,225.381226 481.003937,231.880341 481.002136,238.379471 
	C480.980194,316.870605 480.962585,395.361755 480.943848,473.852844 
z"/>
<path fill="#FF8A50" opacity="1.000000" stroke="none" 
	d="
M241.008453,473.882751 
	C228.067535,473.981903 215.126740,474.141388 202.185684,474.165161 
	C185.418839,474.195953 168.651779,474.118622 151.423843,473.983643 
	C150.975250,408.450958 150.987366,343.022491 151.000305,277.593994 
	C151.002213,267.905090 156.848129,262.015320 166.542496,262.005798 
	C185.688278,261.986938 204.834091,261.999817 223.979889,262.000488 
	C234.711731,262.000885 239.393448,265.965424 241.241776,276.582214 
	C241.291595,276.868347 241.623184,277.105377 241.691986,278.131165 
	C241.373917,281.207306 241.025238,283.517487 241.024246,285.827820 
	C240.997269,348.512787 241.005844,411.197784 241.008453,473.882751 
z"/>
<path fill="#FF4433" opacity="1.000000" stroke="none" 
	d="
M361.009949,473.848663 
	C331.307953,473.895691 301.605988,473.942719 271.439972,473.905487 
	C270.983978,418.410828 270.991455,363.000427 271.000488,307.590027 
	C271.002075,297.862427 276.824738,292.015167 286.588715,292.005646 
	C306.223663,291.986542 325.858612,291.984741 345.493530,292.006592 
	C355.042328,292.017242 360.891541,297.759247 361.052124,308.044830 
	C361.055969,363.900330 361.032959,418.874481 361.009949,473.848663 
z"/>
<path fill="#FF8A50" opacity="1.000000" stroke="none" 
	d="
M121.025520,473.881561 
	C108.082092,473.981110 95.138771,474.141083 82.195198,474.165131 
	C65.425018,474.196289 48.654640,474.119141 31.423435,473.984070 
	C30.975010,451.584747 30.985010,429.290070 31.001213,406.995361 
	C31.007698,398.072235 37.059029,392.026978 46.126938,392.011200 
	C66.092453,391.976410 86.058136,391.968994 106.023605,392.014557 
	C115.056145,392.035156 120.917213,398.020477 121.041245,408.016663 
	C121.052742,430.560730 121.039131,452.221161 121.025520,473.881561 
z"/>
<path fill="#FF5555" opacity="1.000000" stroke="none" 
	d="
M481.213226,473.891357 
	C480.962585,395.361755 480.980194,316.870605 481.002136,238.379471 
	C481.003937,231.880341 481.035156,225.381226 481.071655,218.412170 
	C481.393677,219.807846 481.961060,221.673294 481.962067,223.539047 
	C482.006683,306.660828 482.001404,389.782593 482.008240,473.359131 
	C481.837097,473.852570 481.659851,473.891205 481.213226,473.891357 
z"/>
<path fill="#FF8040" opacity="1.000000" stroke="none" 
	d="
M241.258133,473.906311 
	C241.005844,411.197784 240.997269,348.512787 241.024246,285.827820 
	C241.025238,283.517487 241.373917,281.207306 241.698273,278.527313 
	C241.890656,286.477417 241.990646,294.797241 241.992691,303.117065 
	C242.006668,359.717407 242.000000,416.317749 241.999939,473.375488 
	C241.835876,473.865234 241.671844,473.897583 241.258133,473.906311 
z"/>
<path fill="#FF8000" opacity="1.000000" stroke="none" 
	d="
M361.262970,473.889893 
	C361.032959,418.874481 361.055969,363.900330 361.118225,308.460205 
	C361.438354,309.701355 361.963135,311.408173 361.964569,313.115479 
	C362.008514,366.377563 362.001434,419.639709 362.008575,473.357544 
	C361.848633,473.852539 361.682312,473.891846 361.262970,473.889893 
z"/>
<path fill="#FF8080" opacity="1.000000" stroke="none" 
	d="
M121.270691,473.901672 
	C121.039131,452.221161 121.052742,430.560730 121.092537,408.432556 
	C121.412476,409.659790 121.956718,411.354065 121.961777,413.049896 
	C122.021278,433.006622 121.999985,452.963562 121.999924,473.377045 
	C121.999863,473.833618 121.515854,473.921814 121.270691,473.901672 
z"/>
</svg>