<svg version="1.1" id="Layer_1" xmlns="http://www.w3.org/2000/svg" xmlns:xlink="http://www.w3.org/1999/xlink" x="0px" y="0px"
	 width="100%" viewBox="0 0 512 512" enable-background="new 0 0 512 512" xml:space="preserve">
<path fill="#000000" opacity="1.000000" stroke="none" 
	d="
M513.000000,205.000000 
	C513.000000,307.623810 513.000000,410.247650 513.000000,512.935730 
	C342.447418,512.935730 171.894791,512.935730 1.000000,512.935730 
	C1.000000,438.645569 1.000000,364.290649 1.336371,289.131653 
	C2.112977,289.162292 2.768953,289.950287 2.961174,290.838623 
	C5.967245,304.730560 8.317655,318.796234 12.014548,332.499329 
	C17.415977,352.520538 26.323614,371.146362 36.986198,388.922455 
	C46.486019,404.760101 57.445389,419.533295 70.363556,432.708893 
	C78.559860,441.068481 87.203537,449.060242 96.222878,456.520233 
	C103.696640,462.701904 111.738045,468.316986 120.027924,473.361481 
	C129.982483,479.418854 137.450790,475.028473 141.402481,469.857361 
	C144.601334,465.671387 146.666153,460.618896 149.588135,455.981018 
	C187.772995,476.567352 228.346191,484.260773 271.507141,481.909546 
	C282.455505,480.580078 293.147766,479.951111 303.453308,477.615662 
	C323.738007,473.018707 343.211060,466.131989 361.721985,456.237885 
	C381.376099,445.732697 398.974060,432.637695 414.940399,417.338654 
	C422.147064,410.433197 428.499481,402.557251 434.698364,394.694977 
	C448.993439,376.563995 460.048309,356.464996 467.865112,334.810730 
	C476.975708,309.572327 481.981476,283.486481 481.050964,256.448700 
	C480.732239,247.186646 475.775879,242.002075 466.416687,241.999512 
	C401.286743,241.981644 336.156830,241.962616 270.999146,241.960510 
	C270.971436,241.977036 271.005371,242.031952 270.999390,241.561264 
	C270.995636,175.764938 271.001312,110.439316 270.994934,45.113682 
	C270.994232,38.171070 265.309479,32.216660 258.695343,31.987017 
	C240.873047,31.368221 223.280258,33.076385 205.891708,36.999237 
	C181.118164,42.588146 157.770355,51.939919 136.380783,65.486771 
	C125.158302,72.594414 115.161469,81.642876 104.645355,89.858658 
	C92.764992,99.140266 83.336502,110.732605 74.715248,122.904533 
	C67.704605,132.802505 61.272938,143.149841 55.187210,153.647308 
	C52.070339,159.023682 50.274052,165.165634 47.497795,170.970734 
	C43.004425,169.632538 38.899910,168.267426 34.782822,166.941345 
	C24.285030,163.560135 15.818679,167.397247 13.108667,177.921600 
	C9.259743,192.868942 6.342457,208.055511 2.929753,223.117813 
	C2.763137,223.853195 1.664583,224.377426 0.999998,225.000000 
	C1.000000,150.368576 1.000000,75.737152 1.000000,1.052865 
	C171.550842,1.052865 342.101715,1.052865 513.000000,1.052865 
	C513.000000,63.354336 513.000000,125.709320 512.688965,188.777374 
	C507.712555,182.836319 501.181854,181.148727 493.438965,181.918198 
	C489.336060,182.325943 485.149506,181.891388 481.000427,181.380615 
	C481.000061,145.975632 481.001434,111.027092 480.998932,76.078560 
	C480.998322,67.224228 475.640472,62.005356 466.561920,62.000042 
	C456.477692,61.994144 451.003510,66.905762 451.002136,75.992966 
	C450.996735,111.274338 450.999542,146.555710 450.534607,181.901337 
	C440.393829,181.967087 430.717773,181.968552 421.023376,181.504517 
	C421.003357,156.054535 421.004578,131.070053 420.998444,106.085571 
	C420.996277,97.282883 415.565125,92.004242 406.529358,91.999977 
	C396.481354,91.995224 391.007172,96.931488 391.001068,106.017883 
	C390.984039,131.335266 390.972168,156.652634 390.492371,181.981842 
	C380.351074,181.941330 370.675629,181.888977 361.000183,181.380188 
	C361.000122,166.798782 360.355530,152.634125 361.221710,138.562469 
	C361.820801,128.830200 354.695892,120.761185 344.485870,121.842766 
	C336.709778,122.666519 331.012268,127.628746 331.004456,135.473450 
	C330.989075,150.927826 330.999847,166.382233 330.535187,181.901062 
	C324.908234,181.977036 319.745789,181.977219 314.583496,182.002670 
	C306.238953,182.043808 301.005188,187.699524 301.000000,196.660339 
	C300.994507,206.161697 306.032349,211.989670 314.376984,211.991699 
	C376.160522,212.006714 437.944092,212.027237 499.727356,211.897400 
	C502.147156,211.892319 504.713043,210.666763 506.939667,209.494720 
	C509.139038,208.337006 510.993958,206.524994 513.000000,205.000000 
z"/>
<path fill="#7ED8F6" opacity="1.000000" stroke="none" 
	d="
M0.999998,225.468658 
	C1.664583,224.377426 2.763137,223.853195 2.929753,223.117813 
	C6.342457,208.055511 9.259743,192.868942 13.108667,177.921600 
	C15.818679,167.397247 24.285030,163.560135 34.782822,166.941345 
	C38.899910,168.267426 43.004425,169.632538 47.734512,171.256287 
	C64.519203,176.685959 80.674232,181.870239 96.850655,186.986893 
	C154.898315,205.347610 212.953201,223.685471 271.005371,242.031952 
	C271.005371,242.031952 270.971436,241.977036 270.945801,242.199402 
	C270.920197,242.421783 270.896820,242.910797 270.616669,243.100952 
	C232.212067,309.936798 194.080185,376.578247 155.980850,443.238281 
	C153.601517,447.401276 151.477036,451.709900 149.233978,455.950775 
	C146.666153,460.618896 144.601334,465.671387 141.402481,469.857361 
	C137.450790,475.028473 129.982483,479.418854 120.027924,473.361481 
	C111.738045,468.316986 103.696640,462.701904 96.222878,456.520233 
	C87.203537,449.060242 78.559860,441.068481 70.363556,432.708893 
	C57.445389,419.533295 46.486019,404.760101 36.986198,388.922455 
	C26.323614,371.146362 17.415977,352.520538 12.014548,332.499329 
	C8.317655,318.796234 5.967245,304.730560 2.961174,290.838623 
	C2.768953,289.950287 2.112977,289.162292 1.336371,288.663818 
	C1.000000,267.979095 1.000000,246.958206 0.999998,225.468658 
z"/>
<path fill="#61729B" opacity="1.000000" stroke="none" 
	d="
M421.041687,181.970016 
	C430.717773,181.968552 440.393829,181.967087 450.999573,181.962311 
	C461.619690,181.918381 471.310211,181.877731 481.000702,181.837082 
	C485.149506,181.891388 489.336060,182.325943 493.438965,181.918198 
	C501.181854,181.148727 507.712555,182.836319 512.688965,189.245239 
	C513.000000,194.022095 513.000000,199.044189 513.000000,204.533142 
	C510.993958,206.524994 509.139038,208.337006 506.939667,209.494720 
	C504.713043,210.666763 502.147156,211.892319 499.727356,211.897400 
	C437.944092,212.027237 376.160522,212.006714 314.376984,211.991699 
	C306.032349,211.989670 300.994507,206.161697 301.000000,196.660339 
	C301.005188,187.699524 306.238953,182.043808 314.583496,182.002670 
	C319.745789,181.977219 324.908234,181.977036 331.000122,181.964874 
	C341.619843,181.921707 351.310028,181.879166 361.000214,181.836624 
	C370.675629,181.888977 380.351074,181.941330 390.963257,181.992493 
	C401.613892,181.984207 411.327789,181.977112 421.041687,181.970016 
z"/>
<path fill="#FF435B" opacity="1.000000" stroke="none" 
	d="
M270.896820,242.910797 
	C270.896820,242.910797 270.920197,242.421783 270.973541,242.182877 
	C336.156830,241.962616 401.286743,241.981644 466.416687,241.999512 
	C475.775879,242.002075 480.732239,247.186646 481.050964,256.448700 
	C481.981476,283.486481 476.975708,309.572327 467.865112,334.810730 
	C460.048309,356.464996 448.993439,376.563995 434.698364,394.694977 
	C428.499481,402.557251 422.147064,410.433197 414.940399,417.338654 
	C398.974060,432.637695 381.376099,445.732697 361.721985,456.237885 
	C343.211060,466.131989 323.738007,473.018707 303.453308,477.615662 
	C293.147766,479.951111 282.455505,480.580078 271.485413,481.451630 
	C271.021820,442.667480 271.019745,404.412231 270.997620,366.156982 
	C270.973846,325.074921 270.931213,283.992859 270.896820,242.910797 
z"/>
<path fill="#FED843" opacity="1.000000" stroke="none" 
	d="
M270.999390,241.561264 
	C212.953201,223.685471 154.898315,205.347610 96.850655,186.986893 
	C80.674232,181.870239 64.519203,176.685959 48.117645,171.247147 
	C50.274052,165.165634 52.070339,159.023682 55.187210,153.647308 
	C61.272938,143.149841 67.704605,132.802505 74.715248,122.904533 
	C83.336502,110.732605 92.764992,99.140266 104.645355,89.858658 
	C115.161469,81.642876 125.158302,72.594414 136.380783,65.486771 
	C157.770355,51.939919 181.118164,42.588146 205.891708,36.999237 
	C223.280258,33.076385 240.873047,31.368221 258.695343,31.987017 
	C265.309479,32.216660 270.994232,38.171070 270.994934,45.113682 
	C271.001312,110.439316 270.995636,175.764938 270.999390,241.561264 
z"/>
<path fill="#FF7B4A" opacity="1.000000" stroke="none" 
	d="
M270.616669,243.100952 
	C270.931213,283.992859 270.973846,325.074921 270.997620,366.156982 
	C271.019745,404.412231 271.021820,442.667480 271.054443,481.380646 
	C228.346191,484.260773 187.772995,476.567352 149.588135,455.981018 
	C151.477036,451.709900 153.601517,447.401276 155.980850,443.238281 
	C194.080185,376.578247 232.212067,309.936798 270.616669,243.100952 
z"/>
<path fill="#FF435B" opacity="1.000000" stroke="none" 
	d="
M481.000427,181.380615 
	C471.310211,181.877731 461.619690,181.918381 451.464233,181.898056 
	C450.999542,146.555710 450.996735,111.274338 451.002136,75.992966 
	C451.003510,66.905762 456.477692,61.994144 466.561920,62.000042 
	C475.640472,62.005356 480.998322,67.224228 480.998932,76.078560 
	C481.001434,111.027092 481.000061,145.975632 481.000427,181.380615 
z"/>
<path fill="#6AA9FF" opacity="1.000000" stroke="none" 
	d="
M421.023376,181.504517 
	C411.327789,181.977112 401.613892,181.984207 391.429138,181.980652 
	C390.972168,156.652634 390.984039,131.335266 391.001068,106.017883 
	C391.007172,96.931488 396.481354,91.995224 406.529358,91.999977 
	C415.565125,92.004242 420.996277,97.282883 420.998444,106.085571 
	C421.004578,131.070053 421.003357,156.054535 421.023376,181.504517 
z"/>
<path fill="#FABE2C" opacity="1.000000" stroke="none" 
	d="
M361.000183,181.380188 
	C351.310028,181.879166 341.619843,181.921707 331.464722,181.900436 
	C330.999847,166.382233 330.989075,150.927826 331.004456,135.473450 
	C331.012268,127.628746 336.709778,122.666519 344.485870,121.842766 
	C354.695892,120.761185 361.820801,128.830200 361.221710,138.562469 
	C360.355530,152.634125 361.000122,166.798782 361.000183,181.380188 
z"/>
</svg>